<svg xmlns="http://www.w3.org/2000/svg" xmlns:xlink="http://www.w3.org/1999/xlink" width="700pt" height="700pt" version="1.1" viewBox="0 0 700 700">
 <g>
  <path d="m416.54 383.69h-22.703v-178.64c0-7.25-5.875-13.125-13.125-13.125h-97.25c-7.25 0-13.125 5.875-13.125 13.125v61.426-0.003907c0 7.25 5.875 13.125 13.125 13.125h22.703v104.09h-22.703c-7.25 0-13.125 5.8789-13.125 13.125v61.426c0 7.25 5.875 13.125 13.125 13.125h133.08c7.25 0 13.125-5.875 13.125-13.125v-61.426c0-7.2461-5.875-13.125-13.125-13.125zm-13.125 61.426h-106.83v-35.176h22.703c7.2461 0 13.125-5.875 13.125-13.125v-130.34c0-7.2461-5.8789-13.125-13.125-13.125h-22.703v-35.176h71v178.64c0 7.25 5.8789 13.125 13.125 13.125h22.703zm-62.207-270.69c11.375 0 22.289-4.5195 30.332-12.566 8.0469-8.043 12.566-18.953 12.566-30.332 0-11.375-4.5195-22.285-12.566-30.332-8.043-8.043-18.953-12.562-30.332-12.562-11.375 0-22.285 4.5195-30.332 12.562-8.043 8.0469-12.562 18.957-12.562 30.332 0.011719 11.375 4.5352 22.277 12.578 30.316 8.0391 8.043 18.945 12.566 30.316 12.582zm0-59.543c4.4141 0 8.6484 1.7539 11.77 4.875 3.125 3.1211 4.8789 7.3555 4.8789 11.77s-1.7539 8.6484-4.8789 11.773c-3.1211 3.1211-7.3555 4.875-11.77 4.875-4.4141 0-8.6484-1.7539-11.77-4.8789-3.1211-3.1211-4.875-7.3555-4.875-11.77 0.003906-4.4141 1.7617-8.6406 4.8828-11.762 3.1172-3.1211 7.3477-4.875 11.762-4.8828z"/>
 </g>
</svg>