<?xml version="1.0" encoding="UTF-8"?>
<svg width="700pt" height="700pt" version="1.1" viewBox="0 0 700 700" xmlns="http://www.w3.org/2000/svg">
 <g>
  <path d="m204.52 223.45c11.648 0 21.094-9.4453 21.094-21.094 0-11.652-9.4453-21.094-21.094-21.094s-21.094 9.4414-21.094 21.094c0 11.648 9.4453 21.094 21.094 21.094z"/>
  <path d="m147.09 288.28c11.648 0 21.094-9.4453 21.094-21.094s-9.4453-21.094-21.094-21.094-21.094 9.4453-21.094 21.094 9.4453 21.094 21.094 21.094z"/>
  <path d="m511.9 64c-23.875-12.367-53.254-3.0352-65.621 20.84l-54.012 104.28c-0.28906 0.55859-0.53906 1.125-0.75 1.7031-26.457-0.90625-52.664 10.777-70.34 31.465-20.828 24.371-46.449 50.969-68.34 64.551-31.215 19.367-57.02 26.344-73.043 28.82-9.375 1.4492-16.98 7.4844-20.688 15.309-3.8711 8.1719-3.5781 18.883 3.9453 27.172 16.352 18.02 48.23 47.535 106.71 84.727 40.5 25.758 76.812 40.004 96.355 46.605 14.977 5.0547 30.984-0.72656 39.574-13.598 10.867-16.273 29.949-46.961 46.332-84.301 12.121-27.625 22.562-56.094 32.555-84.52 8.4297-23.977 4.6367-49.266-8.1758-69.258l56.289-108.07c12.438-23.887 3.125-53.332-20.789-65.719zm-56.73 151.52 51.691-99.25c5-9.5977 1.2578-21.43-8.3555-26.41-9.5938-4.9688-21.398-1.2188-26.371 8.375l-51.309 99.062c1.7188 0.72656 3.4219 1.5195 5.1133 2.375l18.746 9.5078c3.6953 1.8711 7.1953 3.9961 10.484 6.3398zm1.9375 81.879c-2.0742 5.9023-4.2656 12.035-6.5312 18.289l-118.17-62.012c3.8047-4.2422 7.4531-8.4258 10.906-12.469 17.59-20.586 46.457-27.223 69.457-15.562l18.746 9.5078c23.102 11.711 34.023 38.254 25.59 62.246zm-188.92 14.188c14.371-8.9141 29.363-21.938 43.434-35.938l0.1875 0.097657 128.51 67.445c-4.9453 12.852-10.023 25.426-14.961 36.684-15.473 35.258-33.582 64.402-43.883 79.828-1.4688 2.1992-3.8516 2.918-6.043 2.1797-8.5938-2.9023-20.871-7.4688-35.508-14.094 6.793-7.1641 16.645-18.875 26.09-34.961 4.082-6.9531 1.7227-15.781-5.2695-19.715-6.9883-3.9336-15.965-1.4883-20.043 5.4648-7.5898 12.934-16.863 25.672-28.23 35.605-8.6719-4.6797-17.758-9.957-27.086-15.891-7.582-4.8242-14.684-9.5-21.332-14.02 3.4609-2.3281 7.2539-5.1797 11.324-8.6719 6.125-5.2539 6.7305-14.332 1.3594-20.277-5.375-5.9453-14.695-6.5117-20.82-1.2578-9.0117 7.7266-15.305 10.668-17.844 11.66-23.184-17.418-38.719-31.723-48.77-42.152 19.477-3.6211 46.988-12.199 78.883-31.988z" fill-rule="evenodd"/>
 </g>
</svg>