<!-- <?xml version="1.0" encoding="UTF-8" standalone="no"?>
<svg
   width="700pt"
   height="700pt"
   version="1.1"
   viewBox="0 0 700 700"
   id="svg55"
   sodipodi:docname="submit.svg"
   inkscape:version="1.2.2 (b0a8486541, 2022-12-01)"
   xmlns:inkscape="http://www.inkscape.org/namespaces/inkscape"
   xmlns:sodipodi="http://sodipodi.sourceforge.net/DTD/sodipodi-0.dtd"
   xmlns="http://www.w3.org/2000/svg"
   xmlns:svg="http://www.w3.org/2000/svg">
  <defs
     id="defs59" />
  <sodipodi:namedview
     id="namedview57"
     pagecolor="#ffffff"
     bordercolor="#000000"
     borderopacity="0.25"
     inkscape:showpageshadow="2"
     inkscape:pageopacity="0.0"
     inkscape:pagecheckerboard="0"
     inkscape:deskcolor="#d1d1d1"
     inkscape:document-units="pt"
     showgrid="false"
     inkscape:zoom="0.86035714"
     inkscape:cx="467.24782"
     inkscape:cy="467.82897"
     inkscape:window-width="1920"
     inkscape:window-height="1012"
     inkscape:window-x="1920"
     inkscape:window-y="0"
     inkscape:window-maximized="1"
     inkscape:current-layer="g53" />
  <g
     id="g53">
    <path
       d="M 267.69,345.12 530.17,82.64 c 11.902,-11.902 31.074,-11.902 42.977,0 l 33.719,33.719 c 11.902,11.902 11.902,31.074 0,42.977 l -318.02,318.02 c -11.238,11.902 -30.414,11.902 -42.312,0 L 92.484,323.966 c -11.902,-11.902 -11.902,-31.074 0,-42.977 l 34.379,-34.379 c 11.902,-11.238 31.074,-11.238 42.977,0 l 97.852,98.512 z M 394.71927,249.95246 541.41,99.88 c 5.9492,-5.2891 14.547,-5.2891 20.496,0 l 27.719,27.719 c 5.2891,5.9492 5.2891,14.547 0,20.496 l -312.02,312.02 c -5.2891,5.2891 -14.547,5.2891 -19.836,0 l -147.39,-145.05 c -5.9492,-5.2891 -5.9492,-14.547 0,-19.836 l 29.219,-27.719 c 5.2891,-5.9492 14.547,-5.9492 19.836,0 l 108.25,109.09 z"
       fill-rule="evenodd"
       id="path51"
       sodipodi:nodetypes="cscsccccccccccccccsccccccc" />
    <path
       d="M 267.69,345.12 530.17,82.64 c 11.902,-11.902 31.074,-11.902 42.977,0 l 33.719,33.719 c 11.902,11.902 11.902,31.074 0,42.977 l -318.02,318.02 c -11.238,11.902 -30.414,11.902 -42.312,0 L 92.484,323.966 c -11.902,-11.902 -11.902,-31.074 0,-42.977 l 34.379,-34.379 c 11.902,-11.238 31.074,-11.238 42.977,0 l 97.852,98.512 z M 396.21927,248.45246 541.41,99.88 c 5.9492,-5.2891 14.547,-5.2891 20.496,0 l 27.719,27.719 c 5.2891,5.9492 5.2891,14.547 0,20.496 l -312.02,312.02 c -5.2891,5.2891 -14.547,5.2891 -19.836,0 l -147.39,-145.05 c -5.9492,-5.2891 -5.9492,-14.547 0,-19.836 l 29.219,-27.719 c 5.2891,-5.9492 14.547,-5.9492 19.836,0 l 106.75,112.09 z"
       fill-rule="evenodd"
       id="path3906"
       sodipodi:nodetypes="cscsccccccccccccccsccccccc" />
  </g>
</svg>
!-->
<svg xmlns="http://www.w3.org/2000/svg" xmlns:xlink="http://www.w3.org/1999/xlink" width="700pt" height="700pt" version="1.1" viewBox="0 0 700 700">
 <g>
  <path d="m563.04 271.46c-69.875-69.199-142.71-104.29-216.49-104.29-29.238 0-58.559 5.5938-87.148 16.625-22.664 8.7461-44.906 20.906-66.109 36.141-35.98 25.859-56.504 51.574-57.355 52.656-3.4766 4.3906-3.4766 10.395 0 14.785 0.85547 1.082 21.375 26.797 57.348 52.656 21.203 15.238 43.445 27.402 66.109 36.141 28.594 11.031 57.914 16.625 87.16 16.625 73.773 0 146.61-35.09 216.49-104.29 4.832-4.7695 4.832-12.258-0.007813-17.051zm-213.04 95.352c-47.867 0-86.816-38.949-86.816-86.816s38.949-86.816 86.816-86.816 86.816 38.949 86.816 86.816-38.949 86.816-86.816 86.816zm-139.88-46.039c-22.094-15.797-38.062-31.781-46.34-40.785 8.1719-8.8984 23.863-24.605 45.73-40.324 16.645-11.961 38.77-25.184 65.062-34.66-19.141 19.254-30.992 45.762-30.992 74.988 0 29.355 11.949 55.973 31.238 75.246-21.969-7.8633-43.582-19.367-64.699-34.465zm218.91 30.398c17.008-18.867 27.379-43.832 27.379-71.176s-10.371-52.305-27.379-71.176c35.547 14.461 70.918 38.23 105.82 71.176-34.906 32.945-70.277 56.719-105.82 71.176z"/>
  <path d="m387.49 282.87c-18.262 0-33.062-14.805-33.062-33.062 0-10.039 4.4805-19.023 11.543-25.09-5.0664-1.4609-10.426-2.2461-15.965-2.2461-31.773 0-57.535 25.762-57.535 57.535 0 31.773 25.762 57.535 57.535 57.535 31.773 0 57.535-25.762 57.535-57.535 0-1.2773-0.042969-2.5469-0.12891-3.8086-5.5469 4.1836-12.445 6.6719-19.922 6.6719z"/>
 </g>
</svg>
