<?xml version="1.0" encoding="utf-8"?>
<svg version="1.1" id="Layer_1" xmlns="http://www.w3.org/2000/svg" xmlns:xlink="http://www.w3.org/1999/xlink" x="0px" y="0px"
	 viewBox="0 0 512 512" style="enable-background:new 0 0 512 512;" xml:space="preserve">
<g>
	<path d="M512,99.65c-19.17,8.38-39.5,13.88-60.3,16.3c21.82-12.82,38.25-33.15,46.17-57.2c-20.67,12.05-43.25,20.53-66.73,25.1
		c-20-20.95-47.73-32.75-76.67-32.65c-58.02,0-105.05,46.35-105.05,103.43c0,8.1,0.93,16,2.72,23.55
		c-84.15-4-162.7-43.2-216.47-108.05C26.35,85.85,21.45,103.8,21.5,122.1c0,35.9,18.53,67.57,46.68,86.1
		c-16.65-0.55-32.93-5-47.55-13v1.3c0,50.13,36.22,91.92,84.22,101.45c-9.03,2.38-18.32,3.6-27.65,3.6c-6.8,0-13.37-0.65-19.8-1.92
		c14.07,42.4,53.45,71.25,98.1,71.88c-37.38,28.77-83.25,44.32-130.43,44.2c-8.5,0-16.85-0.5-25.08-1.42
		c48.17,30.48,104.03,46.63,161,46.52c193.23,0,298.85-157.6,298.85-294.3l-0.38-13.38C480.08,138.63,497.88,120.5,512,99.65z"/>
</g>
</svg>